<svg width="630" height="1103" viewBox="0 0 630 1103" fill="none" xmlns="http://www.w3.org/2000/svg">
<path d="M23.9996 799.12C26.5556 858.874 51.3702 915.677 93.8702 959.065C136.382 1002.46 192.656 1028.41 252.322 1032.14C262.752 1032.79 273.246 1032.79 283.678 1032.14C343.345 1028.41 399.617 1002.46 442.129 959.065C484.63 915.677 509.444 858.874 512 799.12C515.514 716.937 477.893 639.028 411.362 590.712C387.406 573.314 373.104 545.74 373.104 516.949V449.211C373.104 415.309 345.522 387.729 311.622 387.729H224.378C190.477 387.729 162.896 415.309 162.896 449.211V516.949C162.896 545.74 148.594 573.313 124.637 590.712C58.1062 639.026 20.4862 716.936 23.9996 799.12ZM268 1044.15C262.576 1044.15 257.058 1043.97 251.606 1043.64C189.09 1039.73 130.149 1012.56 85.6409 967.126C41.1462 921.704 15.1676 862.213 12.4902 799.612C8.81023 713.558 48.2036 631.98 117.868 581.389C138.849 566.153 151.376 542.063 151.376 516.949V449.211C151.376 408.957 184.124 376.209 224.378 376.209H311.622C351.876 376.209 384.625 408.957 384.625 449.211V516.949C384.625 542.063 397.15 566.153 418.133 581.389C487.796 631.981 527.189 713.56 523.51 799.612C520.832 862.213 494.853 921.704 450.358 967.126C405.85 1012.56 346.91 1039.73 284.394 1043.64C278.941 1043.97 273.425 1044.15 268 1044.15" fill="#fff"/>
<path d="M378.32 446.744H157.637C154.457 446.744 151.877 444.164 151.877 440.983C151.877 437.803 154.457 435.223 157.637 435.223H378.32C381.5 435.223 384.08 437.803 384.08 440.983C384.08 444.164 381.5 446.744 378.32 446.744" fill="#fff"/>
<path d="M378.341 506.09H157.66C154.478 506.09 151.898 503.511 151.898 500.33C151.898 497.149 154.478 494.57 157.66 494.57H378.341C381.522 494.57 384.101 497.149 384.101 500.33C384.101 503.511 381.522 506.09 378.341 506.09" fill="#fff"/>
<path d="M319.861 387.729C316.681 387.729 314.101 385.151 314.101 381.969C314.101 364.768 305.954 352.78 298.644 352.78H237.356C230.045 352.78 221.898 364.768 221.898 381.969C221.898 385.151 219.32 387.729 216.138 387.729C212.957 387.729 210.378 385.151 210.378 381.969C210.378 359.141 222.228 341.259 237.356 341.259H298.644C313.772 341.259 325.622 359.141 325.622 381.969C325.622 385.151 323.042 387.729 319.861 387.729" fill="#fff"/>
<path d="M454.071 827.972C453.741 827.972 453.408 827.942 453.072 827.884C449.939 827.336 447.841 824.352 448.389 821.217C450.209 810.806 451.132 800.124 451.132 789.466C451.132 784.997 450.968 780.484 450.648 776.053C450.417 772.88 452.804 770.121 455.977 769.892C459.152 769.657 461.908 772.048 462.139 775.22C462.479 779.926 462.652 784.72 462.652 789.466C462.652 800.786 461.672 812.137 459.739 823.201C459.248 826 456.817 827.972 454.071 827.972Z" fill="#fff"/>
<path d="M352.341 964.293C350.228 964.293 348.193 963.125 347.184 961.106C345.761 958.26 346.914 954.801 349.761 953.378C390.17 933.181 421.598 898.974 438.254 857.061C439.428 854.106 442.777 852.661 445.734 853.836C448.69 855.01 450.134 858.36 448.96 861.316C431.257 905.862 397.856 942.218 354.912 963.684C354.085 964.096 353.206 964.293 352.341 964.293" fill="#fff"/>
<path d="M262.217 347.02C262.217 350.2 264.797 352.78 267.979 352.78C271.16 352.78 273.739 350.2 273.739 347.02V0.000346548H262.217V347.02Z" fill="#fff"/>
<path d="M475.963 545.687C474.523 545.687 473.083 545.137 471.984 544.039C469.785 541.841 469.785 538.277 471.984 536.08L503.953 504.111C506.151 501.913 509.713 501.913 511.912 504.111C514.109 506.308 514.109 509.872 511.912 512.069L479.941 544.039C478.843 545.137 477.403 545.687 475.963 545.687Z" fill="#fff"/>
<path d="M507.932 545.687C506.492 545.687 505.052 545.137 503.953 544.039L471.984 512.069C469.785 509.872 469.785 506.308 471.984 504.111C474.181 501.913 477.744 501.913 479.941 504.111L511.912 536.08C514.109 538.277 514.109 541.841 511.912 544.039C510.812 545.137 509.372 545.687 507.932 545.687" fill="#fff"/>
<path d="M596.876 556.773C589.754 556.773 583.96 562.566 583.96 569.688C583.96 576.809 589.754 582.602 596.876 582.602C603.996 582.602 609.79 576.809 609.79 569.688C609.79 562.566 603.996 556.773 596.876 556.773ZM596.876 593.858C583.548 593.858 572.705 583.014 572.705 569.688C572.705 556.36 583.548 545.517 596.876 545.517C610.204 545.517 621.046 556.36 621.046 569.688C621.046 583.014 610.204 593.858 596.876 593.858Z" fill="#fff"/>
<path d="M16.4996 514.854L32.9942 531.349L39.0329 508.816L16.4996 514.854ZM31.9289 546.2L1.64888 515.92C0.227551 514.498 -0.32844 512.426 0.19156 510.484C0.712893 508.542 2.23022 507.025 4.17156 506.505L45.5356 495.421C47.4769 494.901 49.5502 495.457 50.9702 496.878C52.3929 498.3 52.9476 500.372 52.4276 502.314L41.3436 543.677C40.8236 545.62 39.3062 547.137 37.3649 547.657C35.4222 548.177 33.3502 547.621 31.9289 546.2Z" fill="#fff"/>
<path d="M568.961 1054.83L552.465 1038.34L546.428 1060.87L568.961 1054.83ZM553.532 1023.49L583.812 1053.77C585.233 1055.19 585.788 1057.26 585.269 1059.2C584.748 1061.15 583.23 1062.66 581.289 1063.18L539.925 1074.27C537.984 1074.79 535.912 1074.23 534.489 1072.81C533.068 1071.39 532.512 1069.32 533.033 1067.37L544.116 1026.01C544.637 1024.07 546.154 1022.55 548.096 1022.03C550.038 1021.51 552.109 1022.07 553.532 1023.49" fill="#fff"/>
<path d="M578.421 659.647C578.421 662.805 575.861 665.363 572.705 665.363C569.548 665.363 566.989 662.805 566.989 659.647C566.989 656.491 569.548 653.931 572.705 653.931C575.861 653.931 578.421 656.491 578.421 659.647Z" fill="#fff"/>
<path d="M81.5373 1049.5C82.9773 1049.5 84.4173 1050.05 85.5159 1051.14C87.7146 1053.34 87.7146 1056.91 85.5159 1059.1L53.5466 1091.07C51.3493 1093.27 47.7866 1093.27 45.5879 1091.07C43.3906 1088.88 43.3906 1085.31 45.5879 1083.12L77.5573 1051.14C78.6573 1050.05 80.0973 1049.5 81.5373 1049.5" fill="#fff"/>
<path d="M49.5679 1049.5C51.0079 1049.5 52.4479 1050.05 53.5466 1051.14L85.5159 1083.12C87.7146 1085.31 87.7146 1088.88 85.5159 1091.07C83.3186 1093.27 79.7559 1093.27 77.5573 1091.07L45.5879 1059.1C43.3906 1056.91 43.3906 1053.34 45.5879 1051.14C46.6879 1050.05 48.1279 1049.5 49.5679 1049.5" fill="#fff"/>
</svg>
